Fly_normalized_Motion_pl10
version=1
nRows=8
nColumns=43
inDegrees=yes
endheader
time		pelvis_tilt		pelvis_list		pelvis_rotation		pelvis_tx		pelvis_ty		pelvis_tz		hip_flexion_r		hip_adduction_r		hip_rotation_r		knee_angle_r		ankle_angle_r		subtalar_angle_r		mtp_angle_r		hip_flexion_l		hip_adduction_l		hip_rotation_l		knee_angle_l		ankle_angle_l		subtalar_angle_l		mtp_angle_l		lumbar_extension		lumbar_bending		lumbar_rotation		neck_flexion		neck_lateral_bending		neck_rotation		arm_flex_r		arm_add_r		arm_rot_r		elbow_flex_r		pro_sup_r		wrist_flex_r		wrist_dev_r		hand_finger_flex_r		arm_flex_l		arm_add_l		arm_rot_l		elbow_flex_l		pro_sup_l		wrist_flex_l		wrist_dev_l		hand_finger_flex_l		
0.642500		4.437274		-11.767808		94.671743		0.000630		1.465925		0.921696		53.747265		-6.265474		-12.138685		-32.788569		-20.437367		-4.023530		10.638359		57.388985		-5.672345		0.740359		-36.777712		-17.444961		-12.597109		-4.853120		-32.229811		6.557131		1.865888		16.583968		0.785766		1.291962		-13.681209		-39.416626		-10.991379		64.326063		106.901868		-25.808089		0.157965		41.101167		-21.976372		-52.946126		-19.370120		51.232654		123.617200		-43.647726		8.891695		86.213062		
0.646515		4.484202		-11.538794		94.363258		0.000710		1.454406		0.910918		52.976699		-5.968274		-12.286854		-31.631886		-20.741235		-3.860704		10.676807		56.561638		-6.074881		0.334093		-35.570513		-17.938960		-12.870827		-4.886925		-31.778895		6.490716		2.261176		15.563297		0.804331		1.018304		-17.763742		-38.831356		-12.999358		64.411611		106.729636		-26.389058		-0.240596		40.549749		-25.708071		-52.095695		-21.768291		50.226865		122.815381		-43.963128		8.909773		86.060434		
0.650530		4.461461		-11.238016		94.081827		0.001068		1.442973		0.900067		52.132394		-5.695894		-12.273527		-30.499810		-21.160645		-3.820123		10.774117		55.589154		-6.437041		-0.170284		-34.268436		-18.490317		-13.245180		-4.893984		-31.455190		6.317541		2.440409		14.753629		0.958491		0.919632		-21.512772		-38.053842		-14.875007		64.252420		106.788976		-26.405907		-1.263599		39.557167		-29.769622		-51.111041		-24.745785		49.393411		121.589339		-43.906800		8.296764		85.601150		
0.654545		4.422892		-10.935955		93.763997		0.001360		1.431299		0.889205		51.307979		-5.445744		-12.312907		-29.411054		-21.621435		-3.786381		10.854753		54.615311		-6.796554		-0.666294		-33.005763		-18.978955		-13.473491		-4.905873		-31.050922		6.140790		2.576906		13.607559		1.102272		0.851285		-25.071740		-37.269572		-16.585302		63.986444		106.889496		-26.469146		-2.199129		38.601615		-33.700253		-50.037774		-27.533594		48.481931		120.290790		-43.794936		7.708751		85.158312		
0.658561		4.310525		-10.616040		93.436815		0.001540		1.419532		0.878208		50.468231		-5.271244		-12.334044		-28.347475		-22.121077		-3.808840		11.009413		53.569230		-7.092893		-1.226747		-31.714425		-19.425161		-13.579723		-4.869092		-30.573916		5.915547		2.552698		12.052172		1.283172		0.968599		-28.377018		-36.463979		-18.138369		63.581877		107.016422		-26.251286		-3.090961		37.203883		-37.594593		-48.809110		-30.357123		47.523001		118.884897		-43.414790		6.924510		84.436139		
0.662576		4.299094		-10.337782		93.237797		0.001481		1.407462		0.867181		49.646721		-5.141713		-12.559341		-27.297967		-22.577793		-3.726305		11.002134		52.628319		-7.361364		-1.661246		-30.489220		-19.825184		-13.547785		-4.905706		-29.960988		5.889301		2.696897		10.201503		1.185058		0.936137		-31.968841		-35.579228		-19.813169		63.357031		106.934188		-26.738509		-3.450240		36.773490		-40.866165		-47.736495		-32.340791		46.406197		118.146952		-43.622058		6.919896		84.287457		
0.666591		4.280399		-10.062479		92.881731		0.001804		1.395264		0.856077		48.862562		-4.870604		-12.593840		-26.254142		-23.158298		-3.845260		11.095913		51.634274		-7.738295		-2.152435		-29.263204		-20.141927		-13.628855		-4.868758		-29.411798		5.719568		2.763915		8.675395		1.400775		0.864761		-35.153538		-34.599031		-21.454994		62.828373		107.191002		-26.664013		-4.642795		35.680298		-44.479129		-46.330259		-34.998710		45.556443		116.693947		-43.289436		6.296022		83.707751		
0.670606		4.266314		-9.787068		92.671779		0.001726		1.382898		0.844894		48.047530		-4.759400		-12.851458		-25.252180		-23.612396		-3.803126		11.083929		50.670250		-7.992002		-2.596605		-28.038223		-20.443580		-13.542361		-4.885387		-28.720635		5.707512		2.843544		6.565094		1.307586		0.862963		-38.522902		-33.568455		-23.131934		62.548033		107.119454		-27.078599		-5.051194		35.272573		-47.588093		-45.073335		-36.938620		44.511373		116.006998		-43.461215		6.235219		83.496801		
